<svg viewBox="0 0 180 180" xmlns="http://www.w3.org/2000/svg">
  <defs>
    <linearGradient id="bg" x1="50%" y1="0%" x2="50%" y2="100%">
      <stop offset="0%" stop-color="#FAFCFD"/>
      <stop offset="100%" stop-color="#E8F0F2"/>
    </linearGradient>
    <radialGradient id="orb" cx="35%" cy="30%" r="75%">
      <stop offset="0%" stop-color="#BFD8EE"/>
      <stop offset="55%" stop-color="#5288B8"/>
      <stop offset="100%" stop-color="#1F3F66"/>
    </radialGradient>
    <linearGradient id="leaf" x1="20%" y1="100%" x2="80%" y2="0%">
      <stop offset="0%" stop-color="#2D7032"/>
      <stop offset="55%" stop-color="#5BA84A"/>
      <stop offset="100%" stop-color="#A8D86B"/>
    </linearGradient>
    <linearGradient id="leafDark" x1="20%" y1="100%" x2="80%" y2="0%">
      <stop offset="0%" stop-color="#1F4D22"/>
      <stop offset="100%" stop-color="#4A8F3F"/>
    </linearGradient>
    <linearGradient id="arrow" x1="0%" y1="100%" x2="100%" y2="0%">
      <stop offset="0%" stop-color="#2D7A2D"/>
      <stop offset="100%" stop-color="#8FC846"/>
    </linearGradient>
    <radialGradient id="hl" cx="50%" cy="50%" r="50%">
      <stop offset="0%" stop-color="#FFFFFF" stop-opacity="0.55"/>
      <stop offset="100%" stop-color="#FFFFFF" stop-opacity="0"/>
    </radialGradient>
  </defs>
  <rect width="180" height="180" rx="40" fill="url(#bg)"/>
  <g transform="translate(40 40) scale(1)">
    <circle cx="50" cy="50" r="40" fill="url(#orb)"/>
    <ellipse cx="36" cy="30" rx="16" ry="10" fill="url(#hl)"/>
    <ellipse cx="60" cy="72" rx="22" ry="5" fill="#0A1F38" opacity="0.22"/>
    <path d="M 50 62 Q 24 60 22 38 Q 30 32 42 38 Q 50 48 50 62 Z" fill="url(#leafDark)"/>
    <path d="M 50 58 Q 30 56 28 36 Q 38 32 46 40 Q 50 50 50 58 Z" fill="url(#leaf)"/>
    <path d="M 50 62 Q 66 64 72 48 Q 66 44 58 50 Q 52 56 50 62 Z" fill="url(#leaf)" opacity="0.92"/>
    <path d="M 47 44 Q 41 32 48 24 Q 55 32 50 44 Z" fill="url(#leaf)"/>
    <path d="M 30 70 Q 46 58 58 40 L 70 24" stroke="url(#arrow)" stroke-width="6" fill="none" stroke-linecap="round"/>
    <path d="M 58 24 L 73 22 L 71 36" stroke="url(#arrow)" stroke-width="6" fill="none" stroke-linecap="round" stroke-linejoin="round"/>
    <g transform="translate(76 18)">
      <path d="M 0 -4.5 L 0 4.5 M -4.5 0 L 4.5 0" stroke="#FFFFFF" stroke-width="1.1" stroke-linecap="round"/>
      <circle cx="0" cy="0" r="1.4" fill="#FFFFFF"/>
    </g>
  </g>
</svg>
